Coordinates

Units are S.I. units (second, meters, Newtons, ...)
If the header above contains a line with 'inDegrees', this indicates whether rotational values are in degrees (yes) or radians (no).

inDegrees=no
nColumns=21
nRows=15
DataType=double
version=3
OpenSimVersion=4.6-2026-03-31-d6972f9e6
endheader
time	/jointset/ground_pelvis/pelvis_tilt/value	/jointset/ground_pelvis/pelvis_list/value	/jointset/ground_pelvis/pelvis_rotation/value	/jointset/ground_pelvis/pelvis_tx/value	/jointset/ground_pelvis/pelvis_ty/value	/jointset/ground_pelvis/pelvis_tz/value	/jointset/hip_r/hip_flexion_r/value	/jointset/hip_r/hip_adduction_r/value	/jointset/hip_r/hip_rotation_r/value	/jointset/walker_knee_r/knee_angle_r/value	/jointset/patellofemoral_r/knee_angle_r_beta/value	/jointset/ankle_r/ankle_angle_r/value	/jointset/subtalar_r/subtalar_angle_r/value	/jointset/hip_l/hip_flexion_l/value	/jointset/hip_l/hip_adduction_l/value	/jointset/hip_l/hip_rotation_l/value	/jointset/walker_knee_l/knee_angle_l/value	/jointset/patellofemoral_l/knee_angle_l_beta/value	/jointset/ankle_l/ankle_angle_l/value	/jointset/subtalar_l/subtalar_angle_l/value
139.996	-0.132769887496923	0.08740025674765338	0.1369580104623376	1.187988170000082	0.8974008700000496	-0.2946220100000173	0.4367129134579358	-0.1422451231009008	0.04276864231231186	1.654969387201634	1.654969390000126	-0.2095667340952945	-0.3907309990413838	0.3361041436848604	0.1418932299916482	-0.007729446283192807	0.77510955112955	0.7751095500000484	0.3814606846392701	-0.2562208282138657
140	-0.1334670566518361	0.08425614649275019	0.1304480710107229	1.187733619702718	0.8994249634560796	-0.2946527001719573	0.453681512963524	-0.1386258478589269	0.04789334941041705	1.639999226813108	1.639999229139997	-0.2053317699633451	-0.3956291461257304	0.3176098133132205	0.1374950189982995	-0.006472566548031008	0.7603644882072542	0.7603644871856899	0.3709872411780953	-0.2601046835059434
140.004	-0.1341215556775358	0.08104287239011923	0.1239305434715205	1.187492835561294	0.9014649881082539	-0.2946815918965895	0.4704372415699303	-0.1348984633302047	0.0529190203005207	1.624741585966389	1.624741587835741	-0.2012014007187715	-0.4004460101078059	0.2990680442471257	0.1330338758311376	-0.005247987639386048	0.7455582989484659	0.7455582980340379	0.3602248708670963	-0.2639817552116463
140.008	-0.1346934599751694	0.07769346063803603	0.1173983778950797	1.187279259386632	0.9035364038804282	-0.2947069014632746	0.4867741617736194	-0.1309587422683046	0.05775026131572275	1.608915070361984	1.608915071801371	-0.1972747607342343	-0.4051027727078838	0.2804346763633186	0.1284485299523485	-0.004089987279677338	0.7306327739843005	0.7306327731748929	0.3488932314552767	-0.2678412742256777
140.012	-0.1351480342698286	0.07414526361330129	0.110845510768575	1.18710570313172	0.9056537352487281	-0.2947268729064123	0.5024995837047342	-0.1267099750027838	0.06229884909699127	1.592250086847504	1.592250087896975	-0.1936406177609922	-0.4095252282766692	0.2616717420767799	0.123681056886671	-0.00303660035297504	0.715535219358083	0.7155352186493176	0.3367286358144316	-0.2716653226544959
140.016	-0.135457671059963	0.07034195872176267	0.1042672017870656	1.186984076696358	0.907830119664254	-0.2947397922848037	0.5174393047808201	-0.1220661602061248	0.06648697873182953	1.574493907041802	1.574493907752383	-0.1903733774141326	-0.4136453064806455	0.2427497930026692	0.1186785715700905	-0.002130980693706465	0.7002205479423634	0.7002205473264619	0.3234912145549169	-0.2754269996458448
140.02	-0.1356032579683508	0.06623532561906974	0.09766030049022488	1.186925157353395	0.9100768727403843	-0.2947440085133751	0.5314415637427705	-0.1169546378393567	0.07025005217659155	1.555414929852054	1.555414930283651	-0.1875301198785122	-0.4174017358567793	0.2236496021584174	0.1133948888869923	-0.001422141644757978	0.6846528368195397	0.6846528362843938	0.3089709378184529	-0.2790900107163179
140.024	-0.1355749974694456	0.06178675524803488	0.09102350907016822	1.186938403728205	0.9124030768183332	-0.2947379641722274	0.544379689462821	-0.111318139011131	0.07353886654753554	1.534806103669129	1.534806103887722	-0.1851486331654471	-0.4207397580614599	0.2043633172044376	0.1077921110662284	-0.0009649354502922291	0.6688064403395633	0.6688064398683821	0.2929923680502901	-0.2826094977259949
140.028	-0.1353727058221476	0.05696849325447694	0.08435768588437301	1.187031814417029	0.9148152067474876	-0.2947202360112787	0.5561535013851027	-0.1051162885196666	0.07632113137885314	1.512487538374987	1.512487538449142	-0.1832463550596782	-0.4236099767881688	0.1848951343544761	0.1018421206721523	-0.0008192102814610191	0.6526667868331393	0.6526667864048079	0.275418047904781	-0.2859338868765446
140.032	-0.1350056428295496	0.05176463686832589	0.0776661854427544	1.187211829978061	0.9173168089239876	-0.2946895812037988	0.5666896008583053	-0.09832661395426188	0.0785823069501756	1.488308384479686	1.488308384476599	-0.1818201286946576	-0.4259665401228216	0.165261568638032	0.09552795388367445	-0.001048167722204018	0.636230976843474	0.6362309764335263	0.2561505097153984	-0.2890075443257997
140.036	-0.1344919972430436	0.04617187054771049	0.07095519009835369	1.187483275710728	0.9199082449050529	-0.294644982916215	0.575940808438509	-0.09094508470100292	0.08032579017308109	1.462148084274917	1.462148084256345	-0.1808466507813506	-0.4277648739103323	0.1454914579646034	0.08884498143387251	-0.001716024346892395	0.6195082811085998	0.6195082806906322	0.2351330463091865	-0.2917739533328964
140.04	-0.133858090029519	0.0401998937634812	0.06423394294902209	1.187849343250222	0.9225865161996577	-0.2945856867823012	0.5838849390540493	-0.08298614829618894	0.08157251062033552	1.433917081425972	1.433917081444463	-0.1802835017826167	-0.4289592199300631	0.1256257357106751	0.08180178522550191	-0.002885157133902209	0.6025205612405646	0.6025205607879287	0.2123494170990391	-0.2941792124061427
140.044	-0.1331371911657856	0.0338715087101921	0.05751476217811761	1.188311610762361	0.9253451991766731	-0.2945112199418987	0.5905229077822571	-0.07448221617742384	0.08236003190917741	1.403557035432523	1.403557035528323	-0.1800707119461619	-0.429500315385416	0.1057167799487728	0.07442064073418568	-0.00461294412607234	0.5853025274159636	0.5853025269036095	0.1878225626291476	-0.2961759111275885
140.048	-0.1323678858578944	0.02722238350940872	0.05081278299306966	1.188870098666298	0.9281745105350123	-0.2944213895171918	0.5958761887689462	-0.06548263415497967	0.08274122871015802	1.371040596850073	1.371040597049046	-0.1801328292674745	-0.4293335378737882	0.08582719588697296	0.0667375886248711	-0.006948462372069238	0.5679017623096664	0.5679017617160835	0.1616123979358667	-0.2977273852965768
140.052	-0.131592166698319	0.02030054378402289	0.04414549512019272	1.189523351305105	0.9310614961254363	-0.2943162641391267	0.5999839056565406	-0.05605228482399568	0.08278254999283789	1.336370850047732	1.33637085036055	-0.1803813953033306	-0.428397709692913	0.06602820700641564	0.05880213896658367	-0.009929146458707086	0.5503785790789848	0.5503785783882248	0.133812892561375	-0.2988119392342979
